<svg width="30" height="30" viewBox="0 0 30 30" fill="none" xmlns="http://www.w3.org/2000/svg">
<path d="M8.75 10C8.75 6.54822 11.5482 3.75 15 3.75C18.4518 3.75 21.25 6.54822 21.25 10V13.75C21.25 17.2018 18.4518 20 15 20C11.5482 20 8.75 17.2018 8.75 13.75V10Z" stroke="white" stroke-width="1.5"/>
<path d="M16.875 10L21.25 10" stroke="white" stroke-width="1.5" stroke-linecap="round"/>
<path d="M16.875 13.75L21.25 13.75" stroke="white" stroke-width="1.5" stroke-linecap="round"/>
<path d="M8.75 10L11.25 10" stroke="white" stroke-width="1.5" stroke-linecap="round"/>
<path d="M8.75 13.75L11.25 13.75" stroke="white" stroke-width="1.5" stroke-linecap="round"/>
<path d="M25 12.5V13.75C25 19.2728 20.5228 23.75 15 23.75C9.47715 23.75 5 19.2728 5 13.75V12.5" stroke="white" stroke-width="1.5" stroke-linecap="round"/>
<path d="M15 23.75V27.5" stroke="white" stroke-width="1.5" stroke-linecap="round"/>
</svg>
