<svg width="30" height="30" viewBox="0 0 30 30" fill="none" xmlns="http://www.w3.org/2000/svg">
<path d="M25.1025 3.77231L25.1286 4.52185H25.1286L25.1025 3.77231ZM20.625 4.35943L20.4099 3.64093V3.64093L20.625 4.35943ZM17.0923 6.00356L16.7166 5.35444L16.7166 5.35444L17.0923 6.00356ZM4.978 3.84373L4.93199 4.59232L4.978 3.84373ZM8.75 4.35943L8.94136 3.63425V3.63425L8.75 4.35943ZM12.8528 6.09445L12.5022 6.75746V6.75746L12.8528 6.09445ZM17.0345 25.0867L17.3873 25.7485V25.7485L17.0345 25.0867ZM21.25 23.2918L21.0586 22.5666V22.5666L21.25 23.2918ZM24.9814 22.7786L25.0282 23.5272V23.5272L24.9814 22.7786ZM12.9655 25.0867L12.6127 25.7485H12.6127L12.9655 25.0867ZM8.75 23.2918L8.94136 22.5666V22.5666L8.75 23.2918ZM5.01857 22.7786L4.97176 23.5272H4.97176L5.01857 22.7786ZM2.5 20.1796H3.25V6.24737H2.5H1.75V20.1796H2.5ZM27.5 20.1796H28.25V6.16661H27.5H26.75V20.1796H27.5ZM25.1025 3.77231L25.0764 3.02276C23.6559 3.07224 21.8163 3.2199 20.4099 3.64093L20.625 4.35943L20.8401 5.07792C22.051 4.71542 23.7276 4.57065 25.1286 4.52185L25.1025 3.77231ZM20.625 4.35943L20.4099 3.64093C19.188 4.00675 17.8045 4.72485 16.7166 5.35444L17.0923 6.00356L17.468 6.65269C18.5338 6.03585 19.793 5.3914 20.8401 5.07792L20.625 4.35943ZM4.978 3.84373L4.93199 4.59232C6.14207 4.66669 7.5248 4.81179 8.55864 5.0846L8.75 4.35943L8.94136 3.63425C7.75892 3.32223 6.25486 3.17079 5.02401 3.09515L4.978 3.84373ZM8.75 4.35943L8.55864 5.0846C9.78306 5.4077 11.2789 6.11059 12.5022 6.75746L12.8528 6.09445L13.2034 5.43143C11.9614 4.77468 10.34 4.00331 8.94136 3.63425L8.75 4.35943ZM17.0345 25.0867L17.3873 25.7485C18.6282 25.0871 20.1784 24.3503 21.4414 24.017L21.25 23.2918L21.0586 22.5666C19.6179 22.9468 17.9395 23.7543 16.6817 24.4248L17.0345 25.0867ZM21.25 23.2918L21.4414 24.017C22.4635 23.7473 23.8271 23.6023 25.0282 23.5272L24.9814 22.7786L24.9346 22.0301C23.7122 22.1066 22.2283 22.258 21.0586 22.5666L21.25 23.2918ZM12.9655 25.0867L13.3183 24.4248C12.0605 23.7543 10.3821 22.9468 8.94136 22.5666L8.75 23.2918L8.55864 24.017C9.82156 24.3503 11.3718 25.0871 12.6127 25.7485L12.9655 25.0867ZM8.75 23.2918L8.94136 22.5666C7.77175 22.258 6.28783 22.1066 5.06539 22.0301L5.01857 22.7786L4.97176 23.5272C6.17287 23.6023 7.53649 23.7473 8.55864 24.017L8.75 23.2918ZM27.5 20.1796H26.75C26.75 21.1431 25.9552 21.9663 24.9346 22.0301L24.9814 22.7786L25.0282 23.5272C26.7797 23.4176 28.25 21.9936 28.25 20.1796H27.5ZM27.5 6.16661H28.25C28.25 4.43519 26.8731 2.96017 25.0764 3.02276L25.1025 3.77231L25.1286 4.52185C26.0113 4.4911 26.75 5.21691 26.75 6.16661H27.5ZM2.5 20.1796H1.75C1.75 21.9936 3.2203 23.4176 4.97176 23.5272L5.01857 22.7786L5.06539 22.0301C4.04482 21.9663 3.25 21.1431 3.25 20.1796H2.5ZM17.0345 25.0867L16.6817 24.4248C15.6362 24.9821 14.3638 24.9821 13.3183 24.4248L12.9655 25.0867L12.6127 25.7485C14.0992 26.5409 15.9008 26.5409 17.3873 25.7485L17.0345 25.0867ZM17.0923 6.00356L16.7166 5.35444C15.639 5.97813 14.2974 6.00988 13.2034 5.43143L12.8528 6.09445L12.5022 6.75746C14.0596 7.58095 15.9499 7.53129 17.468 6.65269L17.0923 6.00356ZM2.5 6.24737H3.25C3.25 5.27565 4.02401 4.53652 4.93199 4.59232L4.978 3.84373L5.02401 3.09515C3.19175 2.98253 1.75 4.47367 1.75 6.24737H2.5Z" fill="white"/>
<path d="M15 7.3175V26.2499" stroke="white" stroke-width="1.5"/>
<path d="M6.25 11.25L11.25 12.5" stroke="white" stroke-width="1.5" stroke-linecap="round"/>
<path d="M23.75 11.25L18.75 12.5" stroke="white" stroke-width="1.5" stroke-linecap="round"/>
<path d="M6.25 16.25L11.25 17.5" stroke="white" stroke-width="1.5" stroke-linecap="round"/>
<path d="M23.75 16.25L18.75 17.5" stroke="white" stroke-width="1.5" stroke-linecap="round"/>
</svg>
